<svg width="295" height="296" viewBox="0 0 295 296" fill="none" xmlns="http://www.w3.org/2000/svg">
<path d="M135.434 295.44L141.104 178.8L102.224 288.96L79.5442 280.05L129.764 173.94L52.0042 261.42L34.1842 243.6L121.664 165.84L15.5542 216.06L6.64421 193.38L116.804 154.5L0.164215 160.17V135.87L116.804 142.35L6.64421 102.66L15.5542 80.79L121.664 131.01L34.1842 52.44L52.0042 35.43L129.764 122.1L79.5442 16.8L102.224 7.07996L141.104 118.05L135.434 0.599976H159.734L153.254 117.24L192.944 7.07996L214.814 16.8L164.594 122.1L243.164 35.43L260.174 52.44L173.504 131.01L278.804 80.79L288.524 102.66L177.554 142.35L295.004 135.87V160.17L177.554 154.5L288.524 193.38L278.804 216.06L173.504 165.84L260.174 243.6L243.164 261.42L164.594 173.94L214.814 280.05L192.944 288.96L153.254 178.8L159.734 295.44H135.434Z" fill="#BDFF00"/>
</svg>
