<svg width="81" height="81" viewBox="0 0 81 81" fill="none" xmlns="http://www.w3.org/2000/svg">
<path d="M9.54927 0C4.27807 0 0 4.27807 0 9.54927V70.6646C0 75.9358 4.27807 80.2139 9.54927 80.2139H70.6646C75.9358 80.2139 80.2139 75.9358 80.2139 70.6646V9.54927C80.2139 4.27807 75.9358 0 70.6646 0H9.54927ZM15.2788 26.738H28.1331C29.5273 26.738 37.0706 26.6431 37.0706 33.5567C37.0706 37.2237 34.5679 38.4639 33.4411 39.0177C35.1218 39.5525 38.1971 41.1001 38.1971 45.8365C38.1971 53.1513 29.8119 53.4759 28.6851 53.4759H15.2788V26.738ZM47.7464 26.738H61.1154V30.5577H47.7464V26.738ZM21.0084 31.3783V37.645H27.1595C27.9998 37.645 30.7852 37.1849 30.7852 34.3774C30.7852 31.5699 27.1575 31.3783 26.6037 31.3783H21.0084ZM54.871 32.4675C62.3195 32.4675 64.3423 38.273 64.6478 39.6481C64.9343 41.0423 64.9351 42.2651 64.9351 43.9267H49.8465C49.8465 45.5882 50.7269 49.3317 55.1769 49.3317C56.361 49.3317 57.2373 49.0463 58.1349 48.4924C59.0135 47.9385 59.3219 47.4012 59.6084 46.8474H64.6292C63.7507 49.0437 62.567 50.7083 60.7908 51.816C59.0147 52.9237 56.952 53.4759 54.5838 53.4759C53.0941 53.4759 51.6234 53.1905 50.1337 52.6366C48.9496 52.0828 47.767 51.2608 46.8884 50.4396C46.0099 49.5992 45.4177 48.4911 44.8256 47.116C44.2336 46.0082 43.9267 44.3468 43.9267 42.9717C43.9267 41.5966 44.4814 32.4675 54.871 32.4675ZM54.871 36.3432C50.5548 36.3432 49.8465 40.4886 49.8465 40.756H59.3211C59.0156 39.3809 57.774 36.3432 54.871 36.3432ZM21.0084 41.4647V48.8356H27.4094C27.9614 48.8356 31.8558 48.6649 31.8558 45.2844C31.8558 41.9231 28.796 41.4647 27.4094 41.4647H21.0084Z" fill="black"/>
</svg>
