<svg width="311" height="311" viewBox="0 0 311 311" fill="none" xmlns="http://www.w3.org/2000/svg">
<path d="M63.8893 273.685C57.4093 273.685 51.3343 270.85 45.6643 265.18C39.9943 259.51 37.1593 253.435 37.1593 246.955C37.1593 240.07 40.3993 233.185 46.4743 227.11C55.3843 218.2 67.1293 211.72 81.3043 204.43C93.8593 197.95 107.224 190.255 122.614 178.51C119.374 174.055 116.944 168.385 115.729 162.31C96.6943 165.145 82.1143 168.79 68.3443 173.245C52.9543 178.105 40.3993 181.75 27.8443 181.75C10.4293 181.75 0.304321 171.625 0.304321 155.425C0.304321 139.225 10.4293 129.1 27.8443 129.1C40.3993 129.1 52.9543 132.745 68.3443 137.605C82.1143 142.06 96.6943 146.11 116.134 148.945C116.944 142.87 119.374 137.2 123.019 132.34C107.224 120.595 93.8593 112.9 81.3043 106.42C67.1293 99.1301 55.3843 92.6501 46.4743 83.7401C40.3993 77.6651 37.1593 70.78 37.1593 63.8951C37.1593 57.415 39.9943 51.3401 45.6643 45.6701C51.3343 40.0001 57.4093 37.165 63.8893 37.165C70.7743 37.165 77.6593 40.4051 83.7343 46.48C92.6443 55.3901 99.1243 67.135 106.414 81.3101C112.894 93.8651 120.589 107.23 132.334 123.025C137.194 119.38 142.864 116.95 148.939 116.14C146.104 96.7001 142.054 82.1201 137.599 68.3501C132.739 52.9601 129.094 40.405 129.094 27.85C129.094 10.435 139.219 0.310059 155.419 0.310059C171.619 0.310059 181.744 10.435 181.744 27.85C181.744 40.405 178.099 52.9601 173.239 68.3501C168.784 82.1201 165.139 96.7001 162.304 115.735C168.379 116.95 174.049 119.38 178.504 122.62C190.249 107.23 197.944 93.8651 204.424 81.3101C211.714 67.135 218.194 55.3901 227.104 46.48C233.179 40.4051 240.064 37.165 246.949 37.165C253.429 37.165 259.504 40.0001 265.174 45.6701C270.844 51.3401 273.679 57.415 273.679 63.8951C273.679 70.78 270.439 77.6651 264.364 83.7401C255.454 92.6501 243.709 99.1301 229.534 106.42C216.979 112.9 203.614 120.595 188.224 132.34C191.464 137.2 193.894 142.465 195.109 148.945C214.144 146.11 228.724 142.06 242.494 137.605C257.884 132.745 270.439 129.1 282.994 129.1C300.409 129.1 310.534 139.225 310.534 155.425C310.534 171.625 300.409 181.75 282.994 181.75C270.439 181.75 257.884 178.105 242.494 173.245C228.724 168.79 214.144 165.145 195.109 162.31C193.894 168.385 191.869 174.055 188.224 178.915C204.019 190.255 216.979 197.95 229.534 204.43C243.709 211.72 255.454 218.2 264.364 227.11C270.439 233.185 273.679 240.07 273.679 246.955C273.679 253.435 270.844 259.51 265.174 265.18C259.504 270.85 253.429 273.685 246.949 273.685C240.064 273.685 233.179 270.445 227.104 264.37C218.194 255.46 211.714 243.715 204.424 229.54C197.944 216.985 190.249 204.025 178.909 188.23C174.049 191.875 168.379 194.305 162.304 195.115C165.139 214.15 168.784 228.73 173.239 242.5C178.099 257.89 181.744 270.445 181.744 283C181.744 300.415 171.619 310.54 155.419 310.54C139.219 310.54 129.094 300.415 129.094 283C129.094 270.445 132.739 257.89 137.599 242.5C142.054 228.73 146.104 214.15 148.939 195.115C142.864 193.9 137.194 191.47 132.334 188.23C120.589 203.62 112.894 216.985 106.414 229.54C99.1243 243.715 92.6443 255.46 83.7343 264.37C77.6593 270.445 70.7743 273.685 63.8893 273.685Z" fill="#BDFF00"/>
</svg>
