<svg width="312" height="313" viewBox="0 0 312 313" fill="none" xmlns="http://www.w3.org/2000/svg">
<path d="M152.746 105.8C151.531 90.41 148.291 74.21 143.431 57.2C138.571 39.785 135.736 28.85 135.736 23.18C135.736 9.00501 143.431 0.5 155.986 0.5C168.541 0.5 176.236 9.00501 176.236 23.18C176.236 28.85 172.996 41 167.731 60.035C162.466 79.07 159.226 94.46 158.416 105.8H152.746ZM193.651 122.405L189.601 118.355C195.271 111.875 207.826 94.865 211.876 86.765L219.976 71.375C230.911 50.315 241.846 39.785 252.376 39.785C262.096 39.785 272.626 51.125 272.626 61.25C272.626 70.565 261.691 81.095 239.821 92.84C217.546 104.585 202.156 114.71 193.651 122.405ZM117.916 121.595C111.436 116.33 101.311 108.23 85.9208 100.13L70.9358 92.03C49.8758 80.69 39.3458 70.16 39.3458 59.63C39.3458 50.72 50.2808 39.785 59.5958 39.785C69.3158 39.785 79.8458 49.91 90.7808 70.565C101.716 90.815 112.246 106.61 121.966 117.95L117.916 121.595ZM156.391 196.52C134.116 196.52 115.891 179.105 115.891 156.83C115.891 134.555 134.116 116.33 156.391 116.33C178.666 116.33 196.081 134.555 196.081 156.83C196.081 179.105 178.666 196.52 156.391 196.52ZM21.9308 176.675C8.16079 176.675 0.060791 169.385 0.060791 156.425C0.060791 143.87 7.75579 136.175 21.9308 136.175C27.6008 136.175 36.5108 137.795 48.6608 141.44C73.3658 148.73 93.6158 152.375 104.551 153.185V158.855C93.2108 159.665 77.8208 162.5 58.7858 168.17C39.7508 173.84 27.6008 176.675 21.9308 176.675ZM289.231 176.675C283.561 176.675 271.411 173.435 252.376 168.17C232.936 162.905 217.951 159.665 206.611 158.855V153.185C222.001 151.97 238.201 149.135 254.806 143.87C271.816 138.605 283.156 136.175 289.231 136.175C303.406 136.175 311.911 143.87 311.911 156.425C311.911 169.385 303.406 176.675 289.231 176.675ZM252.376 273.065C241.846 273.065 231.316 262.13 219.976 241.07L211.876 226.085C203.371 210.29 195.271 200.165 190.006 194.09L194.056 190.04C198.916 194.495 217.546 207.86 225.646 212.315L240.631 220.415C262.096 232.16 272.626 242.285 272.626 252.41C272.626 262.13 260.881 273.065 252.376 273.065ZM59.5958 273.065C50.2808 273.065 39.3458 262.535 39.3458 253.22C39.3458 242.69 49.8758 232.16 70.9358 220.82L85.9208 212.72C94.0208 208.265 104.551 200.975 117.511 190.445L121.156 194.495C115.891 200.165 103.741 218.795 99.6908 226.49L91.5908 241.88C80.6558 262.535 69.7208 273.065 59.5958 273.065ZM155.986 312.35C143.431 312.35 135.736 304.655 135.736 290.48C135.736 285.215 138.571 273.875 143.431 256.055C148.291 238.64 151.531 222.44 152.746 207.86H158.416C159.226 219.2 162.061 234.185 167.731 253.625C173.401 272.66 176.236 284.81 176.236 290.48C176.236 304.25 168.541 312.35 155.986 312.35Z" fill="#BDFF00"/>
</svg>
