<svg width="282" height="282" viewBox="0 0 282 282" fill="none" xmlns="http://www.w3.org/2000/svg">
<path d="M137.7 104.49L119.475 71.28C111.78 57.51 107.73 46.17 107.73 37.26C107.73 30.375 110.565 23.895 116.235 18.225L121.5 12.96L125.55 8.10002C130.005 2.83501 134.865 0 140.94 0C146.205 0 151.065 2.02502 154.71 6.48001C158.355 10.935 162.81 15.39 167.265 19.845C172.125 24.705 174.15 30.375 174.15 37.26C174.15 44.55 172.125 53.055 167.265 61.965C162.405 70.875 154.71 85.05 144.18 104.49H137.7ZM180.225 109.35L172.935 101.25L236.925 32.4C243.81 24.705 249.885 21.465 254.34 21.465C260.01 21.465 262.035 26.325 262.035 29.97C262.035 34.02 255.555 42.12 251.91 45.36L180.225 109.35ZM101.655 109.35L29.97 45.36C24.3 40.5 19.845 34.02 19.845 29.16C19.845 25.92 22.68 21.465 27.54 21.465C31.995 21.465 38.475 24.705 45.36 32.4L108.945 101.25L101.655 109.35ZM37.26 174.15C30.375 174.15 23.895 171.315 18.63 165.645L12.96 160.38L8.1 156.33C2.025 151.47 0 147.015 0 140.94C0 135.675 2.025 130.815 6.48 127.17C10.935 123.525 15.795 119.475 20.25 114.615C24.705 109.755 30.375 107.73 37.26 107.73C51.435 107.73 63.585 115.02 81 124.74L104.49 137.7V144.18L71.685 162.405C57.915 170.1 46.575 174.15 37.26 174.15ZM244.62 174.15C235.71 174.15 223.965 169.695 210.6 162.405L177.39 144.18V137.7C204.12 123.12 228.42 107.73 244.62 107.73C251.505 107.73 257.985 110.565 263.655 116.235L268.92 121.5L273.78 125.55C279.855 130.41 281.88 134.865 281.88 140.94C281.88 146.205 279.855 151.065 275.4 154.71C270.945 158.355 266.49 162.81 262.035 167.265C257.175 172.125 251.505 174.15 244.62 174.15ZM140.94 173.34C123.525 173.34 108.54 158.355 108.54 140.94C108.54 123.525 123.12 108.54 140.94 108.54C158.355 108.54 173.34 123.525 173.34 140.94C173.34 158.355 158.355 173.34 140.94 173.34ZM27.54 260.415C22.68 260.415 19.845 255.96 19.845 252.72C19.845 248.265 24.705 241.38 29.97 236.52L101.655 172.53L108.945 180.63L45.36 249.48C38.475 257.175 31.995 260.415 27.54 260.415ZM255.15 260.415C249.885 260.415 243.405 257.175 236.52 249.48L172.935 180.63L180.225 172.53L251.91 236.52C257.58 241.785 262.035 247.86 262.035 252.72C262.035 255.555 259.605 260.415 255.15 260.415ZM140.94 281.88C134.865 281.88 130.005 279.45 125.955 274.185L121.095 268.11C115.02 262.845 111.78 258.795 110.16 255.15C108.135 251.91 107.325 248.67 107.325 246.24C107.325 236.115 111.375 224.37 119.475 210.195L137.7 177.39H144.18L157.14 200.88C164.025 213.03 168.48 222.345 170.91 228.42C173.34 234.495 174.15 239.76 174.15 244.62C174.15 251.505 170.91 257.58 165.645 263.25L156.33 273.78C151.065 279.45 147.015 281.88 140.94 281.88Z" fill="#BDFF00"/>
</svg>
