<svg width="81" height="81" viewBox="0 0 81 81" fill="none" xmlns="http://www.w3.org/2000/svg">
<path d="M23.6996 0.0855713C10.6329 0.0855713 0 10.7184 0 23.7851V56.5999C0 69.6666 10.6329 80.2995 23.6996 80.2995H56.5143C69.581 80.2995 80.2139 69.6666 80.2139 56.5999V23.7851C80.2139 10.7184 69.581 0.0855713 56.5143 0.0855713H23.6996ZM23.6996 3.73166H56.5143C67.6103 3.73166 76.5678 12.6892 76.5678 23.7851V56.5999C76.5678 67.6958 67.6103 76.6534 56.5143 76.6534H23.6996C12.6036 76.6534 3.64609 67.6958 3.64609 56.5999V23.7851C3.64609 12.6892 12.6036 3.73166 23.6996 3.73166ZM61.9835 14.6699C61.0165 14.6699 60.0891 15.0541 59.4053 15.7378C58.7215 16.4216 58.3374 17.349 58.3374 18.316C58.3374 19.283 58.7215 20.2104 59.4053 20.8942C60.0891 21.5779 61.0165 21.9621 61.9835 21.9621C62.9505 21.9621 63.8779 21.5779 64.5616 20.8942C65.2454 20.2104 65.6296 19.283 65.6296 18.316C65.6296 17.349 65.2454 16.4216 64.5616 15.7378C63.8779 15.0541 62.9505 14.6699 61.9835 14.6699ZM40.107 20.139C29.0533 20.139 20.0535 29.1389 20.0535 40.1925C20.0535 51.2462 29.0533 60.246 40.107 60.246C51.1606 60.246 60.1604 51.2462 60.1604 40.1925C60.1604 29.1389 51.1606 20.139 40.107 20.139ZM40.107 23.7851C49.1901 23.7851 56.5143 31.1094 56.5143 40.1925C56.5143 49.2757 49.1901 56.5999 40.107 56.5999C31.0238 56.5999 23.6996 49.2757 23.6996 40.1925C23.6996 31.1094 31.0238 23.7851 40.107 23.7851Z" fill="black"/>
</svg>
