<svg width="48" height="39" viewBox="0 0 48 39" fill="none" xmlns="http://www.w3.org/2000/svg">
<path d="M0 4.13793C0 1.85261 1.85262 0 4.13793 0H43.8621C46.1474 0 48 1.85261 48 4.13793C48 6.42325 46.1474 8.27586 43.8621 8.27586H4.13793C1.85262 8.27586 0 6.42325 0 4.13793Z" fill="#BDFF00"/>
<path d="M0 19.0345C0 16.7492 1.85262 14.8966 4.13793 14.8966H43.8621C46.1474 14.8966 48 16.7492 48 19.0345C48 21.3198 46.1474 23.1724 43.8621 23.1724H4.13793C1.85262 23.1724 0 21.3198 0 19.0345Z" fill="#BDFF00"/>
<path d="M0 33.931C0 31.6457 1.85262 29.7931 4.13793 29.7931H43.8621C46.1474 29.7931 48 31.6457 48 33.931C48 36.2164 46.1474 38.069 43.8621 38.069H4.13793C1.85262 38.069 0 36.2164 0 33.931Z" fill="#BDFF00"/>
</svg>
